<svg width="1000" height="130" viewBox="0 0 1000 130" fill="none" xmlns="http://www.w3.org/2000/svg" role="img" aria-label="tech stack">
  <rect x="0.5" y="0.5" width="999" height="129" rx="10" fill="#1c1c1e" stroke="#2b2b2b"/>
  <rect x="18" y="18" width="964" height="94" rx="8" fill="#101010" stroke="#292929"/>
  <text x="38" y="47" fill="#a9a9a9" font-family="Segoe UI, Arial, sans-serif" font-size="13" font-weight="800" letter-spacing="1.8">STACK SIGNAL</text>
  <g font-family="Segoe UI, Arial, sans-serif" font-size="15" font-weight="800">
    <rect x="38" y="68" width="82" height="24" rx="5" fill="#34c759"/><text x="58" y="85" fill="#111111">python</text>
    <rect x="132" y="68" width="52" height="24" rx="5" fill="#ffc504"/><text x="150" y="85" fill="#111111">js</text>
    <rect x="196" y="68" width="68" height="24" rx="5" fill="#34c759"/><text x="214" y="85" fill="#111111">react</text>
    <rect x="276" y="68" width="78" height="24" rx="5" fill="#a8d4a0"/><text x="293" y="85" fill="#111111">django</text>
    <rect x="366" y="68" width="92" height="24" rx="5" fill="#8583e9"/><text x="383" y="85" fill="#eeeeee">postgres</text>
    <rect x="470" y="68" width="58" height="24" rx="5" fill="#ffc504"/><text x="488" y="85" fill="#111111">aws</text>
    <rect x="540" y="68" width="50" height="24" rx="5" fill="#f4606c"/><text x="558" y="85" fill="#111111">git</text>
    <rect x="602" y="68" width="72" height="24" rx="5" fill="#34c759"/><text x="620" y="85" fill="#111111">github</text>
    <rect x="686" y="68" width="62" height="24" rx="5" fill="#a8d4a0"/><text x="704" y="85" fill="#111111">linux</text>
    <rect x="760" y="68" width="74" height="24" rx="5" fill="#8583e9"/><text x="779" y="85" fill="#eeeeee">vscode</text>
  </g>
  <rect x="862" y="68" width="82" height="24" rx="12" fill="#242424"/>
  <circle cx="882" cy="80" r="5" fill="#34c759"/>
  <circle cx="902" cy="80" r="5" fill="#ffc504"/>
  <circle cx="922" cy="80" r="5" fill="#f4606c"/>
</svg>
