<svg width="467" height="195" viewBox="0 0 467 195" fill="none" xmlns="http://www.w3.org/2000/svg" role="img" aria-label="System telemetry for whoerau">
  <defs>
    <linearGradient id="panel" x1="0" y1="0" x2="467" y2="195" gradientUnits="userSpaceOnUse">
      <stop stop-color="#1c1c1e"/>
      <stop offset="0.55" stop-color="#1d1d1f"/>
      <stop offset="1" stop-color="#1c1c1e"/>
    </linearGradient>
    <linearGradient id="signal" x1="48" y1="136" x2="419" y2="136" gradientUnits="userSpaceOnUse">
      <stop stop-color="#8583e9"/>
      <stop offset="0.5" stop-color="#34c759"/>
      <stop offset="1" stop-color="#f4606c"/>
    </linearGradient>
  </defs>
  <rect x="0.5" y="0.5" width="466" height="194" rx="8" fill="url(#panel)" stroke="#2b2b2b"/>
  <rect x="18" y="18" width="431" height="159" rx="7" fill="#111111" stroke="#262626"/>

  <text x="32" y="45" fill="#a9a9a9" font-family="Segoe UI, Arial, sans-serif" font-size="13" font-weight="700" letter-spacing="1.8">SYSTEM TELEMETRY</text>
  <circle cx="415" cy="40" r="5" fill="#34c759"/>
  <circle cx="432" cy="40" r="5" fill="#ffc504"/>

  <text x="32" y="84" fill="#f2f2f2" font-family="Segoe UI, Arial, sans-serif" font-size="33" font-weight="700">512</text>
  <text x="119" y="84" fill="#f2f2f2" font-family="Segoe UI, Arial, sans-serif" font-size="33" font-weight="700">30</text>
  <text x="193" y="84" fill="#f2f2f2" font-family="Segoe UI, Arial, sans-serif" font-size="33" font-weight="700">10</text>
  <text x="260" y="84" fill="#f2f2f2" font-family="Segoe UI, Arial, sans-serif" font-size="33" font-weight="700">12</text>
  <text x="329" y="84" fill="#f2f2f2" font-family="Segoe UI, Arial, sans-serif" font-size="33" font-weight="700">2017</text>

  <text x="33" y="105" fill="#9a9a9a" font-family="Segoe UI, Arial, sans-serif" font-size="12" font-weight="600">repos</text>
  <text x="120" y="105" fill="#9a9a9a" font-family="Segoe UI, Arial, sans-serif" font-size="12" font-weight="600">followers</text>
  <text x="194" y="105" fill="#9a9a9a" font-family="Segoe UI, Arial, sans-serif" font-size="12" font-weight="600">stars</text>
  <text x="261" y="105" fill="#9a9a9a" font-family="Segoe UI, Arial, sans-serif" font-size="12" font-weight="600">forks</text>
  <text x="330" y="105" fill="#9a9a9a" font-family="Segoe UI, Arial, sans-serif" font-size="12" font-weight="600">since</text>

  <rect x="32" y="130" width="403" height="9" rx="4.5" fill="#262626"/>
  <rect x="32" y="130" width="54" height="9" rx="4.5" fill="#8583e9"/>
  <rect x="94" y="130" width="240" height="9" rx="4.5" fill="#34c759"/>
  <rect x="342" y="130" width="36" height="9" rx="4.5" fill="#ffc504"/>
  <rect x="386" y="130" width="49" height="9" rx="4.5" fill="#f4606c"/>

  <path d="M34 157H433" stroke="#2a2a2a" stroke-width="1" stroke-dasharray="4 5"/>
  <text x="32" y="165" fill="#747474" font-family="Segoe UI, Arial, sans-serif" font-size="11" font-weight="600">updated 2026-07-09</text>
  <text x="346" y="165" fill="#747474" font-family="Segoe UI, Arial, sans-serif" font-size="11" font-weight="600">github.com/whoerau</text>
</svg>
